<svg width="276" height="52" viewBox="0 0 276 52" fill="none" xmlns="http://www.w3.org/2000/svg">
<rect width="276" height="52" rx="8" fill="#212121"/>
<path d="M122.864 32.112C122.117 32.112 121.445 31.984 120.848 31.728C120.251 31.4613 119.781 31.088 119.44 30.608C119.099 30.128 118.928 29.568 118.928 28.928H120.88C120.923 29.408 121.109 29.8027 121.44 30.112C121.781 30.4213 122.256 30.576 122.864 30.576C123.493 30.576 123.984 30.4267 124.336 30.128C124.688 29.8187 124.864 29.424 124.864 28.944C124.864 28.5707 124.752 28.2667 124.528 28.032C124.315 27.7973 124.043 27.616 123.712 27.488C123.392 27.36 122.944 27.2213 122.368 27.072C121.643 26.88 121.051 26.688 120.592 26.496C120.144 26.2933 119.76 25.984 119.44 25.568C119.12 25.152 118.96 24.5973 118.96 23.904C118.96 23.264 119.12 22.704 119.44 22.224C119.76 21.744 120.208 21.376 120.784 21.12C121.36 20.864 122.027 20.736 122.784 20.736C123.861 20.736 124.741 21.008 125.424 21.552C126.117 22.0853 126.501 22.8213 126.576 23.76H124.56C124.528 23.3547 124.336 23.008 123.984 22.72C123.632 22.432 123.168 22.288 122.592 22.288C122.069 22.288 121.643 22.4213 121.312 22.688C120.981 22.9547 120.816 23.3387 120.816 23.84C120.816 24.1813 120.917 24.464 121.12 24.688C121.333 24.9013 121.6 25.072 121.92 25.2C122.24 25.328 122.677 25.4667 123.232 25.616C123.968 25.8187 124.565 26.0213 125.024 26.224C125.493 26.4267 125.888 26.7413 126.208 27.168C126.539 27.584 126.704 28.144 126.704 28.848C126.704 29.4133 126.549 29.9467 126.24 30.448C125.941 30.9493 125.499 31.3547 124.912 31.664C124.336 31.9627 123.653 32.112 122.864 32.112ZM128.248 27.552C128.248 26.6667 128.43 25.8827 128.792 25.2C129.166 24.5173 129.667 23.9893 130.296 23.616C130.936 23.232 131.64 23.04 132.408 23.04C133.102 23.04 133.704 23.1787 134.216 23.456C134.739 23.7227 135.155 24.0587 135.464 24.464V23.184H137.304V32H135.464V30.688C135.155 31.104 134.734 31.4507 134.2 31.728C133.667 32.0053 133.059 32.144 132.376 32.144C131.619 32.144 130.926 31.952 130.296 31.568C129.667 31.1733 129.166 30.6293 128.792 29.936C128.43 29.232 128.248 28.4373 128.248 27.552ZM135.464 27.584C135.464 26.976 135.336 26.448 135.08 26C134.835 25.552 134.51 25.2107 134.104 24.976C133.699 24.7413 133.262 24.624 132.792 24.624C132.323 24.624 131.886 24.7413 131.48 24.976C131.075 25.2 130.744 25.536 130.488 25.984C130.243 26.4213 130.12 26.944 130.12 27.552C130.12 28.16 130.243 28.6933 130.488 29.152C130.744 29.6107 131.075 29.9627 131.48 30.208C131.896 30.4427 132.334 30.56 132.792 30.56C133.262 30.56 133.699 30.4427 134.104 30.208C134.51 29.9733 134.835 29.632 135.08 29.184C135.336 28.7253 135.464 28.192 135.464 27.584ZM143.108 30.368L145.604 23.184H147.54L144.18 32H142.004L138.66 23.184H140.612L143.108 30.368ZM156.999 27.376C156.999 27.7067 156.977 28.0053 156.935 28.272H150.199C150.252 28.976 150.513 29.5413 150.983 29.968C151.452 30.3947 152.028 30.608 152.711 30.608C153.692 30.608 154.385 30.1973 154.791 29.376H156.759C156.492 30.1867 156.007 30.8533 155.303 31.376C154.609 31.888 153.745 32.144 152.711 32.144C151.868 32.144 151.111 31.9573 150.439 31.584C149.777 31.2 149.255 30.6667 148.871 29.984C148.497 29.2907 148.311 28.4907 148.311 27.584C148.311 26.6773 148.492 25.8827 148.855 25.2C149.228 24.5067 149.745 23.9733 150.407 23.6C151.079 23.2267 151.847 23.04 152.711 23.04C153.543 23.04 154.284 23.2213 154.935 23.584C155.585 23.9467 156.092 24.4587 156.455 25.12C156.817 25.7707 156.999 26.5227 156.999 27.376ZM155.095 26.8C155.084 26.128 154.844 25.5893 154.375 25.184C153.905 24.7787 153.324 24.576 152.631 24.576C152.001 24.576 151.463 24.7787 151.015 25.184C150.567 25.5787 150.3 26.1173 150.215 26.8H155.095Z" fill="#FCF5E5"/>
</svg>
