<svg width="39" height="12" viewBox="0 0 39 12" fill="none" xmlns="http://www.w3.org/2000/svg">
<path d="M3.93602 11.376C3.18936 11.376 2.51735 11.248 1.92002 10.992C1.32269 10.7253 0.853355 10.352 0.512022 9.87201C0.170688 9.39201 2.15173e-05 8.83201 2.15173e-05 8.19201H1.95202C1.99469 8.67201 2.18135 9.06667 2.51202 9.37601C2.85335 9.68534 3.32802 9.84001 3.93602 9.84001C4.56535 9.84001 5.05602 9.69067 5.40802 9.39201C5.76002 9.08267 5.93602 8.68801 5.93602 8.20801C5.93602 7.83467 5.82402 7.53067 5.60002 7.29601C5.38669 7.06134 5.11469 6.88001 4.78402 6.75201C4.46402 6.62401 4.01602 6.48534 3.44002 6.33601C2.71469 6.14401 2.12269 5.95201 1.66402 5.76001C1.21602 5.55734 0.832022 5.24801 0.512022 4.83201C0.192022 4.41601 0.0320215 3.86134 0.0320215 3.16801C0.0320215 2.52801 0.192022 1.96801 0.512022 1.48801C0.832022 1.00801 1.28002 0.640007 1.85602 0.384007C2.43202 0.128007 3.09869 6.67572e-06 3.85602 6.67572e-06C4.93336 6.67572e-06 5.81335 0.272007 6.49602 0.816007C7.18936 1.34934 7.57336 2.08534 7.64802 3.02401H5.63202C5.60002 2.61867 5.40802 2.27201 5.05602 1.98401C4.70402 1.69601 4.24002 1.55201 3.66402 1.55201C3.14135 1.55201 2.71469 1.68534 2.38402 1.95201C2.05336 2.21867 1.88802 2.60267 1.88802 3.10401C1.88802 3.44534 1.98936 3.72801 2.19202 3.95201C2.40535 4.16534 2.67202 4.33601 2.99202 4.46401C3.31202 4.59201 3.74935 4.73067 4.30402 4.88001C5.04002 5.08267 5.63736 5.28534 6.09602 5.48801C6.56535 5.69067 6.96002 6.00534 7.28002 6.43201C7.61069 6.84801 7.77602 7.40801 7.77602 8.11201C7.77602 8.67734 7.62136 9.21067 7.31202 9.71201C7.01336 10.2133 6.57069 10.6187 5.98402 10.928C5.40802 11.2267 4.72536 11.376 3.93602 11.376ZM9.32027 6.81601C9.32027 5.93067 9.5016 5.14667 9.86427 4.46401C10.2376 3.78134 10.7389 3.25334 11.3683 2.88001C12.0083 2.49601 12.7123 2.30401 13.4803 2.30401C14.1736 2.30401 14.7763 2.44267 15.2883 2.72001C15.8109 2.98667 16.2269 3.32267 16.5363 3.72801V2.44801H18.3763V11.264H16.5363V9.95201C16.2269 10.368 15.8056 10.7147 15.2723 10.992C14.7389 11.2693 14.1309 11.408 13.4483 11.408C12.6909 11.408 11.9976 11.216 11.3683 10.832C10.7389 10.4373 10.2376 9.89334 9.86427 9.20001C9.5016 8.49601 9.32027 7.70134 9.32027 6.81601ZM16.5363 6.84801C16.5363 6.24001 16.4083 5.71201 16.1523 5.26401C15.9069 4.81601 15.5816 4.47467 15.1763 4.24001C14.7709 4.00534 14.3336 3.88801 13.8643 3.88801C13.3949 3.88801 12.9576 4.00534 12.5523 4.24001C12.1469 4.46401 11.8163 4.80001 11.5603 5.24801C11.3149 5.68534 11.1923 6.20801 11.1923 6.81601C11.1923 7.42401 11.3149 7.95734 11.5603 8.41601C11.8163 8.87467 12.1469 9.22667 12.5523 9.47201C12.9683 9.70667 13.4056 9.82401 13.8643 9.82401C14.3336 9.82401 14.7709 9.70667 15.1763 9.47201C15.5816 9.23734 15.9069 8.89601 16.1523 8.44801C16.4083 7.98934 16.5363 7.45601 16.5363 6.84801ZM24.18 9.63201L26.676 2.44801H28.612L25.252 11.264H23.076L19.732 2.44801H21.684L24.18 9.63201ZM38.0708 6.64001C38.0708 6.97067 38.0494 7.26934 38.0068 7.53601H31.2708C31.3241 8.24001 31.5854 8.80534 32.0548 9.23201C32.5241 9.65867 33.1001 9.87201 33.7828 9.87201C34.7641 9.87201 35.4574 9.46134 35.8628 8.64001H37.8308C37.5641 9.45067 37.0788 10.1173 36.3748 10.64C35.6814 11.152 34.8174 11.408 33.7828 11.408C32.9401 11.408 32.1828 11.2213 31.5108 10.848C30.8494 10.464 30.3268 9.93067 29.9428 9.24801C29.5694 8.55467 29.3828 7.75467 29.3828 6.84801C29.3828 5.94134 29.5641 5.14667 29.9268 4.46401C30.3001 3.77067 30.8174 3.23734 31.4788 2.86401C32.1508 2.49067 32.9188 2.30401 33.7828 2.30401C34.6148 2.30401 35.3561 2.48534 36.0068 2.84801C36.6574 3.21067 37.1641 3.72267 37.5268 4.38401C37.8894 5.03467 38.0708 5.78667 38.0708 6.64001ZM36.1668 6.06401C36.1561 5.39201 35.9161 4.85334 35.4468 4.44801C34.9774 4.04267 34.3961 3.84001 33.7028 3.84001C33.0734 3.84001 32.5348 4.04267 32.0868 4.44801C31.6388 4.84267 31.3721 5.38134 31.2868 6.06401H36.1668Z" fill="#FCF5E5"/>
</svg>
