<svg width="22" height="20" viewBox="0 0 22 20" fill="none" xmlns="http://www.w3.org/2000/svg">
<rect width="22" height="20" fill="#F5F5F5"/>
<path d="M-190 -608C-190 -609.105 -189.105 -610 -188 -610H856C857.104 -610 858 -609.105 858 -608V775C858 776.105 857.105 777 856 777H-188C-189.105 777 -190 776.105 -190 775V-608Z" fill="white"/>
<path d="M-188 -609H856V-611H-188V-609ZM857 -608V775H859V-608H857ZM856 776H-188V778H856V776ZM-189 775V-608H-191V775H-189ZM-188 776C-188.552 776 -189 775.552 -189 775H-191C-191 776.657 -189.657 778 -188 778V776ZM857 775C857 775.552 856.552 776 856 776V778C857.657 778 859 776.657 859 775H857ZM856 -609C856.552 -609 857 -608.552 857 -608H859C859 -609.657 857.657 -611 856 -611V-609ZM-188 -611C-189.657 -611 -191 -609.657 -191 -608H-189C-189 -608.552 -188.552 -609 -188 -609V-611Z" fill="black" fill-opacity="0.1"/>
<rect x="-109.5" y="-17.5" width="195" height="59" rx="4.5" stroke="#9747FF" stroke-dasharray="10 5"/>
<rect width="22" height="20" fill="white"/>
<mask id="path-4-inside-1_0_1" fill="white">
<path d="M11.0138 19.9724L20.2042 10.7861C22.3293 8.62314 22.8536 4.52185 20.2042 1.85322C17.0326 -1.34132 12.8832 0.0765214 11 2.48164C9.11675 0.0765214 4.96745 -1.34132 1.79583 1.85322C-0.853643 4.52185 -0.329268 8.62314 1.79584 10.7861L10.9862 19.9724V20L11 19.9862L11.0138 20V19.9724Z"/>
</mask>
<path d="M11.0138 19.9724L20.2042 10.7861C22.3293 8.62314 22.8536 4.52185 20.2042 1.85322C17.0326 -1.34132 12.8832 0.0765214 11 2.48164C9.11675 0.0765214 4.96745 -1.34132 1.79583 1.85322C-0.853643 4.52185 -0.329268 8.62314 1.79584 10.7861L10.9862 19.9724V20L11 19.9862L11.0138 20V19.9724Z" fill="#FF6565" stroke="#FF6565" stroke-width="2" mask="url(#path-4-inside-1_0_1)"/>
</svg>
